<svg width="175" height="165" viewBox="0 0 175 165" fill="none" xmlns="http://www.w3.org/2000/svg">
<rect width="175" height="165" fill="#5928D6"/>
<path fill-rule="evenodd" clip-rule="evenodd" d="M130.636 22.7773C127.376 20.2591 122.914 19 117.25 19H115.25C113.417 19 112.5 19.9948 112.5 21.9845V112.514L62.5 31.1867C59.8334 26.8757 57.0834 23.8084 54.25 21.9845C52.6979 20.8946 50.7957 20.1032 48.5434 19.6103C49.9268 21.6269 51.415 23.8794 52.9898 26.3282C61.7959 40.0216 73.5384 60.2175 85.3062 80.8363C90.0707 89.1842 94.8387 97.6003 99.421 105.689L99.4219 105.69C106.169 117.6 112.513 128.798 117.851 138.021C122.332 145.766 126.086 152.087 128.76 156.249C128.993 156.612 129.216 156.956 129.431 157.282H130.821C130.855 156.236 130.886 155.046 130.914 153.723C131.013 149.013 131.076 142.657 131.11 135.216C131.178 120.337 131.133 101.145 131.041 82.1665C130.95 63.189 130.813 44.4282 130.699 30.4117C130.677 27.6747 130.656 25.1187 130.636 22.7773ZM125.86 157.282C123.176 153.063 119.533 146.918 115.254 139.524C109.913 130.294 103.555 119.071 96.8008 107.15L96.7983 107.145L96.7975 107.144C92.2163 99.0576 87.4528 90.6496 82.7007 82.3233C70.9293 61.6984 59.2238 41.5682 50.4666 27.9509C48.2655 24.5283 46.2648 21.5396 44.5063 19.0678C43.7807 19.0226 43.0286 19 42.25 19H38.6072C38.6071 34.8391 38.6071 66.5495 38.6071 96.358L38.6072 143.88L38.6072 157.282H53.75C55.5834 157.282 56.5 156.371 56.5 154.546V65.7572L111 154.049C112.333 156.204 114.167 157.282 116.5 157.282H125.86ZM35.6072 157.282L35.6072 143.88L35.6071 96.358C35.6071 66.5495 35.6071 34.8391 35.6072 19L34.75 19C32.9166 19 32 19.9948 32 21.9845V154.546C32 156.371 32.9166 157.282 34.75 157.282H35.6072ZM133.823 157.282C133.856 156.244 133.886 155.075 133.913 153.786C134.013 149.052 134.076 142.676 134.11 135.23C134.178 120.336 134.133 101.133 134.041 82.1521C133.95 63.17 133.813 44.4058 133.699 30.3873C133.687 28.8746 133.675 27.4172 133.663 26.0207C135.888 29.3993 137 34.2715 137 40.6376V154.546C137 156.371 136.083 157.282 134.25 157.282H133.823Z" fill="white"/>
</svg>
