<svg width="132" height="46" viewBox="0 0 132 46" fill="none" xmlns="http://www.w3.org/2000/svg">
<g clip-path="url(#clip0_378_277)">
<path d="M24.8909 32.2672C21.7938 28.9438 18.7157 25.6682 15.6669 22.3656C14.2189 20.7971 12.8337 19.1708 11.4042 17.585C11.0447 17.1862 11.0586 16.8982 11.5103 16.6063C12.776 15.7883 14.0367 14.9626 15.2967 14.1357C15.7126 13.8628 16.0332 13.9616 16.3585 14.3162C18.4243 16.5684 20.5085 18.8038 22.5736 21.0567C25.2615 23.989 27.9281 26.941 30.6218 29.868C32.2201 31.6047 33.8549 33.3075 35.469 35.0297C35.9917 35.5873 36.5246 36.1384 37.0034 36.7323C37.1859 36.9588 37.3191 37.296 37.3224 37.5845C37.347 39.7439 37.345 41.9039 37.3179 44.0632C37.3143 44.3451 37.1202 44.6245 37.0143 44.905C36.7309 44.7685 36.3755 44.6993 36.1749 44.4851C33.4248 41.5495 30.6936 38.5963 27.9635 35.642C26.9419 34.5364 25.9353 33.4169 24.8909 32.2672ZM30.5598 36.7149C31.0389 36.762 31.0507 37.1206 31.1411 37.486C31.2122 37.7729 31.4221 38.2236 31.6157 38.2485C32.6117 38.3764 32.8609 39.2462 33.2689 39.8809C33.78 40.6759 33.8141 40.7481 34.7588 40.6682C34.9906 40.6486 35.2893 41.0127 35.4887 41.2564C35.5508 41.3323 35.3871 41.5928 35.3267 41.7688C35.2271 41.8035 35.1275 41.8383 35.0278 41.8731C35.2838 42.1339 35.5426 42.6137 35.7952 42.6104C36.3364 42.6035 36.2507 42.0402 36.2557 41.6556C36.2729 40.3578 36.3801 39.0508 35.8418 37.8058C35.7017 37.482 35.6303 37.1137 35.6024 36.7599C35.5646 36.282 35.366 36.0825 34.8787 36.0999C34.3491 36.1187 34.0054 35.9697 33.8298 35.3286C33.6207 34.5646 33.1551 33.8709 32.8142 33.1745C32.3148 33.4339 31.9823 33.6066 31.6498 33.7793C31.5964 33.7134 31.543 33.6474 31.4896 33.5815C31.6873 33.2993 31.8884 33.0192 32.082 32.7341C32.2842 32.4366 32.2509 32.2487 31.8532 32.168C31.6273 32.1223 31.2857 32.0462 31.2231 31.8918C30.7277 30.6695 29.0373 30.5241 28.7532 29.1171C28.7203 28.9538 28.4633 28.8447 28.3342 28.6904C27.8389 28.0982 27.4482 27.3603 26.8374 26.9396C26.2406 26.5286 25.7692 26.1124 25.459 25.469C25.4045 25.3561 25.121 25.3715 24.9722 25.2805C24.8564 25.2097 24.7373 25.0776 24.7058 24.9512C24.6537 24.7426 24.6711 24.5166 24.6592 24.2979C24.4891 24.4501 24.3294 24.6166 24.1455 24.7498C24.0078 24.8497 23.8352 24.9757 23.6848 24.9675C23.4169 24.953 23.154 24.8457 22.8891 24.7773C23.0218 24.5616 23.1449 24.3393 23.2904 24.1326C23.3927 23.9873 23.5771 23.8812 23.631 23.7252C23.6963 23.5359 23.6629 23.3124 23.6722 23.1038C23.48 23.1471 23.284 23.1785 23.0971 23.2383C22.9878 23.2733 22.8929 23.3536 22.7744 23.4236C22.6078 22.5736 22.6057 22.5755 21.8612 21.7843C21.7548 21.6714 21.6907 21.5193 21.5874 21.4027C21.1045 20.8576 20.3746 20.5048 20.2542 19.6757C20.2476 19.63 20.1491 19.5992 20.0957 19.5583C19.3608 18.9947 18.7006 18.3862 18.3953 17.4561C18.3028 17.1743 18.0023 16.9437 17.7602 16.7317C17.2453 16.2805 16.7166 15.8432 16.1713 15.4294C15.9794 15.2837 15.645 15.0784 15.51 15.1508C15.068 15.3878 14.6879 15.74 14.2184 16.0981C14.6228 16.1832 14.959 16.2539 15.2952 16.3246C15.2905 16.3943 15.2858 16.4639 15.2812 16.5336C15.0575 16.5595 14.8336 16.5828 14.6104 16.6119C14.1009 16.6782 13.585 16.7162 13.0851 16.8264C12.7535 16.8996 12.5546 17.1118 12.6631 17.5269C13.0076 18.844 14.0276 19.4361 15.3304 19.0553C15.4372 19.024 15.5641 19.0611 15.7022 19.0674C14.9405 20.8669 15.4151 21.7541 17.2415 21.8982C17.1274 22.6206 17.3972 23.1073 18.1873 23.1834C18.2267 23.1872 18.2947 23.2297 18.295 23.2549C18.3031 23.9345 18.7379 24.2587 19.2232 24.6644C19.4786 24.8779 19.6226 25.2943 20.0261 25.4464C20.1575 25.4959 20.2701 25.6403 20.3526 25.7666C20.6386 26.2044 20.8887 26.6666 21.1879 27.0948C21.5583 27.625 22.082 28.0806 22.3269 28.6586C22.6959 29.5299 23.2976 29.8691 24.1743 29.9611C24.3441 29.9789 24.6022 30.278 24.6171 30.4636C24.7005 31.4996 24.8565 31.7477 25.8261 31.9183C26.3358 32.008 26.5976 32.2376 26.7294 32.7524C27.0162 33.8715 27.1158 33.9206 28.2953 34.0179C28.3807 34.025 28.4638 34.0595 28.3687 34.0349C28.6251 34.552 28.8711 34.9252 28.9974 35.3353C29.1444 35.8122 29.3464 36.1183 29.8861 36.2015C30.0932 36.2335 30.261 36.5199 30.4069 36.7213C30.3768 36.7654 30.3468 36.8094 30.3167 36.8535C30.3347 36.8658 30.3528 36.8781 30.3708 36.8903C30.4001 36.8273 30.4294 36.7642 30.5598 36.7149Z" fill="#4236C5"/>
<path d="M9.12594 15.7727C6.65686 17.412 4.22843 19.0245 1.67753 20.7182C1.62147 20.3666 1.56119 20.1608 1.56028 19.9548C1.55429 18.6056 1.57235 17.2561 1.55821 15.907C1.55264 15.3762 1.77469 15.0295 2.21239 14.745C5.64321 12.5145 9.07168 10.2802 12.4886 8.02851C15.2672 6.19742 18.0416 4.35921 20.7894 2.48244C21.5055 1.99331 22.0468 1.9913 22.7805 2.48367C27.0556 5.35247 31.3645 8.17083 35.6625 11.0055C37.5388 12.2431 39.4079 13.492 41.2984 14.7075C41.8518 15.0632 42.0897 15.4997 42.0727 16.1555C42.0411 17.3691 42.0685 18.5841 42.0642 19.7985C42.0634 20.0392 42.0307 20.2798 41.9992 20.7018C41.3092 20.2787 40.7213 19.9411 40.1566 19.5684C34.2272 15.6545 28.2999 11.7376 22.3785 7.8117C21.9686 7.53996 21.6433 7.51948 21.2173 7.80198C17.2077 10.4609 13.1853 13.1006 9.12594 15.7727ZM29.1117 11.6417C31.6491 13.3252 34.194 14.9978 36.7211 16.6967C38.1491 17.6568 39.5484 18.6596 40.9595 19.6448C41.2323 19.8353 41.5758 19.9621 41.6254 19.5191C41.7842 18.1013 42.2008 16.6181 40.9141 15.44C40.8073 15.3422 40.7844 15.1583 40.7016 15.0276C40.6087 14.8809 40.5202 14.7033 40.3813 14.6185C39.5086 14.0855 38.62 13.5786 37.7425 13.0533C37.5334 12.9282 37.3454 12.7674 37.1499 12.6202C36.7982 12.3556 36.4625 12.0669 36.0947 11.8274C35.1976 11.2434 34.2734 10.7005 33.3844 10.1048C32.7698 9.693 32.2226 9.17806 31.5981 8.78415C30.1832 7.89183 28.727 7.06509 27.3103 6.1756C25.8883 5.28276 24.4975 4.34018 23.0844 3.4329C22.7287 3.20452 22.3513 3.00163 21.9638 2.83284C21.2093 2.50408 21.2029 2.5178 21.0287 3.3452C20.8193 3.3452 20.5584 3.26481 20.4002 3.3583C19.4026 3.94802 18.4049 4.54319 17.4521 5.20142C16.5427 5.82961 15.7891 6.69076 14.6508 6.96469C14.472 7.00773 14.3079 7.17975 14.1727 7.32533C13.3837 8.1753 12.5309 8.92175 11.3728 9.23442C11.1856 9.28496 11.0144 9.41683 10.8523 9.53401C10.1637 10.0319 9.48976 10.5502 8.79471 11.0386C7.97299 11.616 7.12638 12.1581 6.30748 12.7394C5.83676 13.0735 5.42684 13.7056 4.94113 13.7584C4.13279 13.8464 3.64905 14.4373 3.18558 14.8208C2.22695 15.6141 1.75586 16.8174 1.98839 18.15C2.03751 18.4315 2.24989 18.7005 2.24201 18.9711C2.23502 19.2113 2.02671 19.4456 1.90726 19.6826C3.55301 18.8328 5.13833 17.9591 6.6445 16.9654C8.22876 15.9202 9.72209 14.7381 11.286 13.6607C11.9672 13.1913 12.7632 12.8871 13.4385 12.4107C14.1838 11.885 15.2188 11.6643 15.5112 10.5826C16.1727 10.649 16.6447 10.3313 17.0739 9.84454C17.2987 9.58963 17.6411 9.42807 17.9498 9.25988C18.4365 8.99465 18.9612 8.79427 19.4299 8.50229C19.982 8.15839 20.4646 7.69772 21.0305 7.38332C21.3255 7.21938 21.7343 7.22151 22.0925 7.21763C22.8754 7.20915 23.3339 7.8031 23.9144 8.20772C25.5906 9.37613 27.3208 10.4673 29.1117 11.6417Z" fill="#4236C5"/>
<path d="M6.15249 29.4048C6.15223 26.6618 6.18456 23.9856 6.13306 21.3111C6.11623 20.4371 6.38636 19.8602 7.15345 19.4568C7.68888 19.1752 8.1861 18.8198 8.69411 18.4877C9.03426 18.2654 9.30424 18.3114 9.58129 18.6146C10.1984 19.2899 10.8259 19.9566 11.4713 20.6048C12.1671 21.3037 12.5249 22.0739 12.5253 23.1145C12.5283 29.7898 12.5933 36.4649 12.6368 43.1401C12.6387 43.4323 12.6338 43.7247 12.6236 44.0167C12.6096 44.4177 12.4079 44.6519 11.9961 44.6529C10.265 44.6571 8.53398 44.6575 6.80296 44.6524C6.35469 44.6511 6.15402 44.3877 6.15925 43.9603C6.18289 42.0284 6.22146 40.0967 6.23521 38.1648C6.24945 36.165 6.25054 34.165 6.2387 32.1652C6.23339 31.2674 6.18263 30.3699 6.15249 29.4048ZM12.0475 42.466C12.0644 42.1297 12.0947 41.7935 12.0959 41.4571C12.1028 39.5505 12.1036 37.6439 12.1047 35.7373C12.1057 33.8985 12.1063 32.0597 12.1036 30.2209C12.1024 29.4584 12.0816 28.6959 12.0883 27.9335C12.1021 26.3651 12.2068 24.7927 12.1268 23.2295C12.0526 21.7813 10.6642 20.4216 9.37495 20.2493C9.36001 19.9643 9.34599 19.697 9.33197 19.4296C9.05323 19.4976 8.76522 19.5406 8.49796 19.6396C8.12047 19.7795 7.74933 19.9438 7.39357 20.1318C7.22874 20.219 7.02389 20.3639 6.97979 20.5224C6.8074 21.1418 6.58046 21.7759 6.57378 22.4066C6.53577 25.9981 6.55527 29.5901 6.55539 33.182C6.55548 35.9239 6.5541 38.6658 6.55723 41.4077C6.55802 42.0981 6.43037 42.8352 7.163 43.1872C7.04655 43.5298 6.96001 43.7844 6.87347 44.039C7.14583 44.1111 7.41825 44.2448 7.69052 44.2444C8.72301 44.2433 9.75786 44.2331 10.7872 44.1607C11.8307 44.0874 11.8261 44.0532 11.9296 43.0395C11.9455 42.884 11.9932 42.7318 12.0475 42.466Z" fill="#4236C5"/>
<path d="M37.3398 21.0642C37.34 25.3251 37.34 29.5224 37.34 33.7197C37.2719 33.7585 37.2038 33.7974 37.1356 33.8362C36.8017 33.5073 36.4538 33.1913 36.1361 32.8473C34.6882 31.2792 33.2682 29.6846 31.7961 28.1396C31.2483 27.5647 30.9694 26.9676 30.9772 26.1626C31.0069 23.1036 30.9861 20.0442 30.9993 16.985C31.0004 16.7346 31.1158 16.4847 31.1781 16.2346C31.4141 16.3359 31.6717 16.4046 31.8828 16.5437C33.4603 17.5836 35.0204 18.6503 36.6047 19.6795C37.1053 20.0047 37.4072 20.3858 37.3398 21.0642ZM31.5598 18.2908C31.4594 18.9039 31.2918 19.515 31.2724 20.1307C31.2293 21.5003 31.297 22.8734 31.2519 24.2429C31.1979 25.8839 31.5765 27.2976 33.0152 28.2791C33.1829 28.3935 33.2477 28.6508 33.3793 28.8276C33.6481 29.1889 33.9092 29.5593 34.2113 29.8916C34.6681 30.3941 35.1528 30.8716 35.6353 31.35C35.768 31.4815 35.9882 31.7021 36.0752 31.6649C36.2457 31.5918 36.4525 31.3744 36.4667 31.2022C36.5745 29.8859 36.6821 28.5669 36.7076 27.2471C36.7428 25.4286 36.6363 23.6048 36.7351 21.7911C36.7732 21.0915 36.6243 20.6061 36.1301 20.2022C35.571 19.7453 34.9953 19.3037 34.3947 18.9038C33.7471 18.4726 33.0689 18.0856 32.3892 17.7058C32.2097 17.6055 31.8953 17.4977 31.7863 17.581C31.6392 17.6935 31.6308 17.9874 31.5598 18.2908Z" fill="#4236C5"/>
<path d="M36.6631 4.15991C37.056 4.17209 37.3182 4.34737 37.319 4.76373C37.3217 6.26491 37.3117 7.76613 37.3011 9.26729C37.3007 9.32595 37.2448 9.38422 37.1813 9.5079C37.0264 9.44003 36.8614 9.3945 36.7261 9.30433C35.01 8.16061 33.2832 7.03169 31.5993 5.84201C31.3032 5.63277 31.1916 5.16225 31.0293 4.7252C31.3248 4.52868 31.5788 4.35247 31.8483 4.3244C32.3577 4.27133 32.8764 4.31564 33.3905 4.29754C34.4816 4.25913 35.5722 4.20663 36.6631 4.15991Z" fill="#4236C5"/>
<path d="M7.1264 4.55908C7.8531 5.32064 8.57761 6.0843 9.30752 6.84277C9.62605 7.17376 9.63088 7.47585 9.22898 7.72675C8.46932 8.20102 7.70151 8.66225 6.85732 9.10789C6.29009 7.75806 6.35657 6.39238 6.56068 5.03157C6.58793 4.84988 6.93008 4.71542 7.1264 4.55908Z" fill="#4236C5"/>
<path d="M21.1244 13.4782C20.6355 13.4745 20.1466 13.4739 19.6579 13.4661C19.2288 13.4592 18.9853 13.238 18.9913 12.8067C18.9997 12.2091 19.0372 11.6119 19.1328 10.9821C19.6946 10.988 20.1974 10.9762 20.6725 11.0851C20.928 11.1437 21.3286 11.4072 21.3307 11.5822C21.3385 12.2133 21.2047 12.8461 21.1244 13.4782Z" fill="#4236C5"/>
<path d="M22.9488 14.0201C24.6598 14.0077 24.9092 14.3054 24.6292 15.9524C24.6217 15.9965 24.6294 16.0507 24.6063 16.0835C24.0896 16.8184 23.3379 16.3179 22.7017 16.409C22.572 16.4275 22.2985 16.0709 22.2455 15.8503C22.1639 15.5105 22.2354 15.137 22.2059 14.7808C22.1636 14.2696 22.3753 14.0174 22.9488 14.0201ZM23.4721 14.6544C23.3441 14.6922 23.165 14.6904 23.0986 14.776C22.9574 14.9583 22.8746 15.186 22.7679 15.3951C23.0524 15.3287 23.3632 15.3132 23.6148 15.1831C23.9297 15.0204 23.8852 14.8024 23.4721 14.6544Z" fill="#4236C5"/>
<path d="M18.9779 14.9804C18.9235 14.2454 19.257 14.0152 19.9026 14.0076C21.5194 13.9885 21.8738 14.4056 21.519 16.0127C21.4917 16.1362 21.4099 16.3454 21.3465 16.3481C20.6826 16.3758 19.9986 16.4568 19.3635 16.3207C19.167 16.2786 19.0997 15.6214 18.9801 15.2436C18.9607 15.1825 18.9773 15.11 18.9779 14.9804ZM19.6143 15.0808C19.6216 15.2599 19.6059 15.5898 19.6399 15.595C19.9702 15.6456 20.3426 15.7278 20.6299 15.6148C20.7602 15.5636 20.7264 15.0948 20.767 14.8154C20.4465 14.8319 20.1254 14.8426 19.8059 14.871C19.756 14.8755 19.7133 14.961 19.6143 15.0808Z" fill="#4236C5"/>
<path d="M22.2648 11.0875C22.9217 11.0138 23.5386 10.9794 24.1556 10.9463C24.1769 10.9452 24.2023 10.9512 24.2201 10.9627C24.96 11.4412 24.5656 12.1779 24.618 12.8036C24.6535 13.2272 24.3718 13.453 23.9426 13.4671C21.869 13.5354 22.0764 13.4835 22.0863 11.7711C22.0875 11.5562 22.1765 11.3417 22.2648 11.0875ZM24.1207 12.9474C24.1742 12.6435 24.2295 12.3399 24.2808 12.0356C24.3632 11.5468 24.1382 11.3198 23.6593 11.3221C23.3925 11.3235 23.1213 11.309 22.86 11.3508C22.3414 11.4339 22.3387 11.8386 22.392 12.2278C22.4392 12.5716 22.2935 13.071 22.8667 13.1022C23.259 13.1235 23.6566 13.0476 24.1207 12.9474Z" fill="#4236C5"/>
<path d="M7.10143 4.52007C6.93012 4.71539 6.58797 4.84985 6.56072 5.03154C6.35661 6.39236 6.29012 7.75803 6.81347 9.12331C6.62962 9.37591 6.33535 9.56485 6.31281 9.0774C6.23534 7.40226 6.21676 5.72435 6.18313 4.04735C6.1816 3.97127 6.25212 3.89375 6.36523 3.65857C6.64216 3.97885 6.85929 4.22997 7.10143 4.52007Z" fill="#4236C5"/>
<path d="M36.5992 4.1596C35.5717 4.20687 34.4811 4.25936 33.39 4.29777C32.8759 4.31587 32.3572 4.27156 31.8477 4.32463C31.5783 4.3527 31.3243 4.52891 31.0273 4.67162C31.0512 4.17947 31.4415 4.16063 31.8366 4.16008C33.403 4.15789 34.9695 4.1591 36.5992 4.1596Z" fill="#4236C5"/>
<path d="M21.1712 13.4576C21.2049 12.846 21.3387 12.2132 21.331 11.5821C21.3288 11.4071 20.9282 11.1436 20.6727 11.0851C20.1976 10.9761 19.6948 10.9879 19.1499 10.929C19.6775 10.9096 20.2588 10.9111 20.8401 10.9116C21.3079 10.912 21.5765 11.1469 21.5309 11.6122C21.4707 12.2258 21.8172 12.9158 21.1712 13.4576Z" fill="#4236C5"/>
<path d="M30.4467 36.6906C30.261 36.5201 30.0931 36.2337 29.886 36.2018C29.3463 36.1186 29.1443 35.8124 28.9974 35.3355C28.871 34.9255 28.625 34.5522 28.3687 34.0352C28.4638 34.0598 28.3807 34.0252 28.2953 34.0182C27.1158 33.9208 27.0161 33.8718 26.7294 32.7526C26.5975 32.2379 26.3357 32.0082 25.826 31.9185C24.8565 31.7479 24.7004 31.4998 24.6171 30.4638C24.6021 30.2782 24.344 29.9792 24.1742 29.9613C23.2975 29.8694 22.6959 29.5301 22.3268 28.6588C22.082 28.0809 21.5583 27.6253 21.1878 27.095C20.8887 26.6668 20.6386 26.2046 20.3525 25.7668C20.2701 25.6405 20.1574 25.4962 20.026 25.4466C19.6225 25.2945 19.4785 24.8781 19.2231 24.6646C18.7379 24.2589 18.303 23.9347 18.2949 23.2551C18.2946 23.2299 18.2267 23.1874 18.1873 23.1836C17.3972 23.1075 17.1273 22.6208 17.2414 21.8985C15.4151 21.7544 14.9404 20.8671 15.7021 19.0677C15.564 19.0614 15.4372 19.0242 15.3303 19.0555C14.0276 19.4364 13.0075 18.8442 12.6631 17.5272C12.5545 17.1121 12.7534 16.8998 13.0851 16.8267C13.5849 16.7164 14.1009 16.6785 14.6103 16.6121C14.8335 16.583 15.0575 16.5597 15.2811 16.5338C15.2858 16.4642 15.2905 16.3945 15.2951 16.3248C14.9589 16.2541 14.6227 16.1834 14.2183 16.0983C14.6879 15.7403 15.068 15.388 15.5099 15.151C15.6449 15.0786 15.9794 15.284 16.1713 15.4296C16.7165 15.8434 17.2452 16.2807 17.7602 16.7319C18.0022 16.944 18.3027 17.1745 18.3952 17.4563C18.7006 18.3864 19.3608 18.9949 20.0957 19.5586C20.149 19.5995 20.2475 19.6302 20.2541 19.676C20.3745 20.505 21.1044 20.8578 21.5874 21.4029C21.6906 21.5195 21.7548 21.6716 21.8611 21.7846C22.6057 22.5758 22.6077 22.5739 22.7744 23.4238C22.8928 23.3538 22.9877 23.2735 23.0971 23.2385C23.284 23.1787 23.48 23.1473 23.6721 23.104C23.6628 23.3127 23.6963 23.5361 23.6309 23.7254C23.577 23.8814 23.3926 23.9875 23.2904 24.1328C23.1449 24.3395 23.0217 24.5618 22.889 24.7775C23.154 24.846 23.4169 24.9532 23.6848 24.9677C23.8352 24.9759 24.0077 24.8499 24.1455 24.7501C24.3293 24.6168 24.489 24.4503 24.6591 24.2981C24.671 24.5168 24.6537 24.7428 24.7057 24.9515C24.7373 25.0778 24.8564 25.2099 24.9721 25.2807C25.121 25.3717 25.4045 25.3563 25.4589 25.4692C25.7691 26.1127 26.2405 26.5288 26.8373 26.9398C27.4481 27.3605 27.8389 28.0984 28.3342 28.6906C28.4633 28.8449 28.7202 28.954 28.7532 29.1173C29.0372 30.5243 30.7277 30.6698 31.223 31.8921C31.2856 32.0465 31.6273 32.1225 31.8531 32.1683C32.2508 32.2489 32.2841 32.4368 32.082 32.7344C31.8883 33.0194 31.6873 33.2995 31.4895 33.5817C31.5429 33.6477 31.5963 33.7136 31.6497 33.7795C31.9822 33.6068 32.3148 33.4341 32.8141 33.1747C33.155 33.8711 33.6206 34.5649 33.8298 35.3288C34.0054 35.9699 34.349 36.119 34.8786 36.1001C35.366 36.0827 35.5646 36.2822 35.6023 36.7602C35.6303 37.1139 35.7017 37.4822 35.8417 37.806C36.38 39.051 36.2729 40.358 36.2557 41.6558C36.2506 42.0404 36.3364 42.6037 35.7952 42.6107C35.5426 42.6139 35.2838 42.1341 35.0278 41.8733C35.1274 41.8385 35.227 41.8038 35.3267 41.769C35.387 41.593 35.5507 41.3325 35.4887 41.2567C35.2893 41.0129 34.9906 40.6488 34.7587 40.6684C33.814 40.7483 33.7799 40.6762 33.2688 39.8811C32.8608 39.2464 32.6117 38.3766 31.6156 38.2487C31.422 38.2239 31.2121 37.7731 31.1411 37.4863C31.0506 37.1208 31.0389 36.7622 30.5063 36.7055C30.4527 36.696 30.4467 36.6906 30.4467 36.6906Z" fill="#4236C5"/>
<path d="M30.4555 36.6987C30.4291 36.7645 30.3998 36.8275 30.3705 36.8906C30.3525 36.8783 30.3344 36.866 30.3164 36.8538C30.3465 36.8097 30.3765 36.7656 30.4265 36.7061C30.4465 36.6906 30.4525 36.696 30.4555 36.6987Z" fill="#4236C5"/>
<path d="M29.0707 11.6154C27.3207 10.4674 25.5906 9.37631 23.9143 8.20789C23.3338 7.80327 22.8754 7.20932 22.0925 7.2178C21.7343 7.22169 21.3255 7.21955 21.0304 7.38349C20.4646 7.69789 19.982 8.15856 19.4299 8.50247C18.9612 8.79444 18.4364 8.99482 17.9497 9.26005C17.6411 9.42824 17.2987 9.5898 17.0739 9.84471C16.6447 10.3315 16.1727 10.6492 15.5112 10.5827C15.2188 11.6645 14.1837 11.8852 13.4384 12.4109C12.7632 12.8873 11.9672 13.1915 11.286 13.6608C9.72206 14.7383 8.22873 15.9204 6.64447 16.9656C5.1383 17.9593 3.55298 18.833 1.90723 19.6827C2.02667 19.4458 2.23499 19.2115 2.24198 18.9713C2.24985 18.7007 2.03748 18.4316 1.98836 18.1501C1.75582 16.8176 2.22692 15.6143 3.18555 14.821C3.64901 14.4375 4.13275 13.8466 4.94109 13.7586C5.42681 13.7058 5.83673 13.0736 6.30745 12.7395C7.12634 12.1583 7.97296 11.6162 8.79467 11.0387C9.48973 10.5503 10.1637 10.032 10.8523 9.53419C11.0143 9.417 11.1856 9.28513 11.3728 9.23459C12.5309 8.92193 13.3836 8.17547 14.1727 7.3255C14.3078 7.17993 14.4719 7.00791 14.6507 6.96487C15.789 6.69093 16.5427 5.82979 17.4521 5.2016C18.4049 4.54336 19.4026 3.94819 20.4002 3.35848C20.5584 3.26499 20.8193 3.34538 21.0286 3.34538C21.2028 2.51798 21.2092 2.50426 21.9638 2.83301C22.3512 3.0018 22.7287 3.2047 23.0844 3.43307C24.4975 4.34036 25.8882 5.28294 27.3103 6.17577C28.727 7.06527 30.1832 7.892 31.598 8.78433C32.2226 9.17823 32.7698 9.69317 33.3844 10.105C34.2734 10.7007 35.1975 11.2436 36.0946 11.8276C36.4625 12.067 36.7982 12.3558 37.1498 12.6204C37.3454 12.7676 37.5334 12.9283 37.7425 13.0535C38.62 13.5788 39.5086 14.0857 40.3813 14.6187C40.5201 14.7035 40.6087 14.8811 40.7015 15.0277C40.7843 15.1584 40.8073 15.3424 40.9141 15.4401C42.2008 16.6183 41.7841 18.1014 41.6254 19.5193C41.5758 19.9623 41.2323 19.8355 40.9594 19.645C39.5484 18.6598 38.1491 17.6569 36.721 16.6969C34.1939 14.9979 31.6491 13.3254 29.0707 11.6154Z" fill="#4236C5"/>
<path d="M12.0366 42.5222C11.9929 42.732 11.9451 42.8842 11.9292 43.0397C11.8257 44.0534 11.8304 44.0876 10.7869 44.1609C9.75752 44.2333 8.72266 44.2435 7.69018 44.2446C7.4179 44.245 7.14548 44.1113 6.87313 44.0392C6.95967 43.7846 7.04621 43.53 7.16265 43.1874C6.43002 42.8354 6.55768 42.0983 6.55689 41.408C6.55375 38.666 6.55513 35.9241 6.55504 33.1822C6.55493 29.5903 6.53542 25.9983 6.57344 22.4068C6.58011 21.7761 6.80705 21.142 6.97944 20.5226C7.02354 20.3641 7.22839 20.2192 7.39323 20.132C7.74898 19.944 8.12012 19.7797 8.49762 19.6398C8.76488 19.5408 9.05288 19.4978 9.33162 19.4298C9.34565 19.6972 9.35967 19.9646 9.37461 20.2495C10.6639 20.4218 12.0523 21.7815 12.1264 23.2297C12.2065 24.7929 12.1018 26.3653 12.088 27.9337C12.0812 28.6961 12.1021 29.4586 12.1032 30.2211C12.106 32.0599 12.1054 33.8987 12.1043 35.7375C12.1032 37.6441 12.1024 39.5507 12.0955 41.4573C12.0943 41.7937 12.064 42.1299 12.0366 42.5222Z" fill="#4236C5"/>
<path d="M31.5614 18.2473C31.6309 17.9876 31.6392 17.6937 31.7863 17.5813C31.8954 17.498 32.2098 17.6057 32.3893 17.706C33.0689 18.0858 33.7472 18.4729 34.3948 18.904C34.9954 19.3039 35.571 19.7456 36.1302 20.2025C36.6244 20.6063 36.7733 21.0918 36.7352 21.7914C36.6364 23.605 36.7428 25.4288 36.7077 27.2474C36.6821 28.5671 36.5746 29.8861 36.4667 31.2024C36.4526 31.3746 36.2457 31.592 36.0752 31.6651C35.9883 31.7024 35.7681 31.4818 35.6354 31.3502C35.1529 30.8718 34.6681 30.3943 34.2114 29.8918C33.9093 29.5595 33.6482 29.1891 33.3794 28.8279C33.2478 28.651 33.183 28.3938 33.0153 28.2794C31.5766 27.2978 31.1979 25.8842 31.252 24.2431C31.2971 22.8736 31.2294 21.5005 31.2725 20.1309C31.2919 19.5152 31.4595 18.9042 31.5614 18.2473Z" fill="#4236C5"/>
<path d="M23.5132 14.6588C23.8849 14.8023 23.9294 15.0203 23.6145 15.183C23.3629 15.3131 23.0521 15.3286 22.7676 15.395C22.8743 15.1859 22.9571 14.9582 23.0983 14.7759C23.1647 14.6903 23.3438 14.6921 23.5132 14.6588Z" fill="#4236C5"/>
<path d="M19.6405 15.0447C19.713 14.9608 19.7557 14.8753 19.8056 14.8708C20.1251 14.8424 20.4462 14.8317 20.7667 14.8152C20.7261 15.0946 20.7599 15.5634 20.6296 15.6146C20.3423 15.7276 19.9699 15.6454 19.6396 15.5947C19.6056 15.5895 19.6213 15.2597 19.6405 15.0447Z" fill="#4236C5"/>
<path d="M24.0867 12.9814C23.657 13.0477 23.2594 13.1236 22.8671 13.1022C22.2939 13.071 22.4396 12.5716 22.3925 12.2279C22.3391 11.8387 22.3419 11.434 22.8604 11.3509C23.1218 11.309 23.393 11.3235 23.6598 11.3222C24.1387 11.3198 24.3637 11.5469 24.2812 12.0356C24.2299 12.3399 24.1746 12.6436 24.0867 12.9814Z" fill="#4236C5"/>
</g>
<path d="M58.765 43.15C58.0984 44.05 57.2484 44.75 56.215 45.25C55.1817 45.7167 54.0817 45.95 52.915 45.95C51.0484 45.95 49.465 45.5 48.165 44.6C46.8984 43.7 45.9317 42.5 45.265 41C44.6317 39.5 44.315 37.85 44.315 36.05C44.315 34.1833 44.665 32.5167 45.365 31.05C46.065 29.55 47.065 28.3667 48.365 27.5C49.6984 26.6333 51.2484 26.2 53.015 26.2C54.4817 26.2 55.715 26.4667 56.715 27C57.7484 27.5333 58.565 28.1667 59.165 28.9C59.4317 28.1333 59.865 27.5833 60.465 27.25C61.0984 26.8833 61.8484 26.7 62.715 26.7H62.965C63.3317 26.7 63.515 26.9 63.515 27.3V44.95C63.515 45.3167 63.3317 45.5 62.965 45.5H59.265C58.9317 45.5 58.765 45.3167 58.765 44.95V43.15ZM53.965 41.45C54.5984 41.45 55.2817 41.3167 56.015 41.05C56.7817 40.75 57.4317 40.2167 57.965 39.45C58.4984 38.6833 58.765 37.55 58.765 36.05C58.765 34.55 58.4984 33.4333 57.965 32.7C57.4317 31.9333 56.7984 31.4333 56.065 31.2C55.3317 30.9333 54.6484 30.8 54.015 30.8C53.3484 30.8 52.6317 30.95 51.865 31.25C51.1317 31.55 50.4984 32.0833 49.965 32.85C49.465 33.6167 49.215 34.6833 49.215 36.05C49.215 37.4833 49.4817 38.6 50.015 39.4C50.5817 40.1667 51.2317 40.7 51.965 41C52.6984 41.3 53.365 41.45 53.965 41.45ZM67.7596 21.8C67.7596 21 68.0096 20.35 68.5096 19.85C69.0429 19.3167 69.6929 19.05 70.4596 19.05C71.2262 19.05 71.8596 19.3167 72.3596 19.85C72.8929 20.35 73.1596 21 73.1596 21.8C73.1596 22.5667 72.8929 23.2167 72.3596 23.75C71.8596 24.2833 71.2262 24.55 70.4596 24.55C69.6929 24.55 69.0429 24.2833 68.5096 23.75C68.0096 23.2167 67.7596 22.5667 67.7596 21.8ZM68.6096 45.5C68.2762 45.5 68.1096 45.3167 68.1096 44.95V27.3C68.1096 26.9 68.2762 26.7 68.6096 26.7H68.8596C70.1262 26.7 71.1096 27.0333 71.8096 27.7C72.5096 28.3667 72.8596 29.45 72.8596 30.95V44.95C72.8596 45.3167 72.6762 45.5 72.3096 45.5H68.6096ZM82.1822 29.45C82.7489 28.3833 83.4322 27.6667 84.2322 27.3C85.0322 26.9 86.1156 26.7 87.4822 26.7H88.0322C88.3656 26.7 88.5322 26.9 88.5322 27.3V30.7C88.5322 31.1 88.3656 31.3 88.0322 31.3H86.7322C84.8989 31.3 83.6989 31.7667 83.1322 32.7C82.5989 33.6 82.3322 34.9333 82.3322 36.7V44.95C82.3322 45.3167 82.1656 45.5 81.8322 45.5H78.0822C77.7822 45.5 77.6322 45.3167 77.6322 44.95V27.3C77.6322 26.9 77.7822 26.7 78.0822 26.7H78.3322C80.4989 26.7 81.7822 27.6167 82.1822 29.45ZM91.6854 21.8C91.6854 21 91.9354 20.35 92.4354 19.85C92.9687 19.3167 93.6187 19.05 94.3854 19.05C95.152 19.05 95.7854 19.3167 96.2854 19.85C96.8187 20.35 97.0854 21 97.0854 21.8C97.0854 22.5667 96.8187 23.2167 96.2854 23.75C95.7854 24.2833 95.152 24.55 94.3854 24.55C93.6187 24.55 92.9687 24.2833 92.4354 23.75C91.9354 23.2167 91.6854 22.5667 91.6854 21.8ZM92.5354 45.5C92.202 45.5 92.0354 45.3167 92.0354 44.95V27.3C92.0354 26.9 92.202 26.7 92.5354 26.7H92.7854C94.052 26.7 95.0354 27.0333 95.7354 27.7C96.4354 28.3667 96.7854 29.45 96.7854 30.95V44.95C96.7854 45.3167 96.602 45.5 96.2354 45.5H92.5354ZM106.008 29.05C106.608 28.25 107.341 27.6 108.208 27.1C109.108 26.6 110.175 26.35 111.408 26.35C114.341 26.35 116.425 27.45 117.658 29.65C118.325 28.75 119.158 27.9833 120.158 27.35C121.158 26.6833 122.358 26.35 123.758 26.35C126.125 26.35 127.975 27.05 129.308 28.45C130.675 29.85 131.358 31.9333 131.358 34.7V44.95C131.358 45.3167 131.158 45.5 130.758 45.5H127.058C126.725 45.5 126.558 45.3167 126.558 44.95V35.25C126.558 33.5833 126.191 32.4 125.458 31.7C124.758 31 123.858 30.65 122.758 30.65C121.658 30.65 120.725 31.0167 119.958 31.75C119.225 32.4833 118.858 33.6667 118.858 35.3V44.95C118.858 45.3167 118.691 45.5 118.358 45.5H114.608C114.241 45.5 114.058 45.3167 114.058 44.95V35.25C114.058 33.5833 113.708 32.4 113.008 31.7C112.308 31 111.391 30.65 110.258 30.65C109.125 30.65 108.191 31.0167 107.458 31.75C106.725 32.4833 106.358 33.6667 106.358 35.3V44.95C106.358 45.3167 106.175 45.5 105.808 45.5H102.008C101.708 45.5 101.558 45.3167 101.558 44.95V27.3C101.558 26.9 101.708 26.7 102.008 26.7H102.258C103.225 26.7 104.025 26.9 104.658 27.3C105.325 27.6667 105.775 28.25 106.008 29.05Z" fill="#4236C5"/>
<defs>
<clipPath id="clip0_378_277">
<rect width="42" height="45" fill="white" transform="translate(0.665039 0.5)"/>
</clipPath>
</defs>
</svg>
