<svg width="1166" height="421" viewBox="0 0 1166 421" fill="none" xmlns="http://www.w3.org/2000/svg">
<mask id="mask0_1446_14858" style="mask-type:luminance" maskUnits="userSpaceOnUse" x="0" y="0" width="392" height="421">
<path d="M391.9 0H0V421H391.9V0Z" fill="white"/>
</mask>
<g mask="url(#mask0_1446_14858)">
<path d="M226.049 297.199C197.149 266.109 168.428 235.463 139.979 204.565C126.468 189.891 113.543 174.676 100.205 159.84C96.8498 156.108 96.9792 153.415 101.194 150.684C113.004 143.031 124.768 135.306 136.525 127.57C140.406 125.016 143.397 125.941 146.432 129.258C165.709 150.329 185.156 171.242 204.426 192.319C229.506 219.752 254.388 247.37 279.524 274.754C294.435 291.002 309.69 306.932 324.751 323.045C329.629 328.262 334.601 333.416 339.069 338.973C340.773 341.091 342.016 344.248 342.045 346.947C342.276 367.149 342.257 387.357 342.003 407.559C341.97 410.196 340.16 412.809 339.172 415.434C336.526 414.155 333.21 413.509 331.338 411.505C305.678 384.041 280.193 356.412 254.718 328.772C245.186 318.429 235.794 307.957 226.049 297.199ZM278.946 338.81C283.416 339.25 283.524 342.607 284.368 346.025C285.032 348.708 286.991 352.926 288.797 353.159C298.091 354.354 300.415 362.493 304.223 368.429C308.992 375.868 309.31 376.543 318.124 375.796C320.289 375.612 323.075 379.018 324.936 381.3C325.516 382.008 323.987 384.447 323.424 386.092C322.495 386.418 321.566 386.742 320.636 387.068C323.025 389.508 325.438 393.996 327.795 393.967C332.845 393.901 332.046 388.632 332.093 385.033C332.254 372.892 333.253 360.663 328.23 349.017C326.924 345.986 326.257 342.541 325.997 339.231C325.644 334.761 323.791 332.895 319.243 333.056C314.302 333.232 311.095 331.839 309.458 325.84C307.506 318.693 303.16 312.204 299.98 305.689C295.32 308.114 292.218 309.73 289.116 311.346C288.617 310.729 288.118 310.112 287.62 309.495C289.465 306.855 291.341 304.236 293.149 301.568C295.035 298.784 294.724 297.026 291.013 296.271C288.906 295.845 285.717 295.133 285.135 293.687C280.511 282.252 264.738 280.892 262.088 267.729C261.78 266.202 259.382 265.18 258.177 263.736C253.556 258.197 249.91 251.292 244.21 247.358C238.642 243.513 234.244 239.619 231.349 233.599C230.841 232.541 228.195 232.687 226.805 231.835C225.727 231.174 224.615 229.938 224.32 228.754C223.835 226.803 223.996 224.688 223.886 222.643C222.299 224.067 220.809 225.625 219.094 226.871C217.807 227.804 216.197 228.983 214.794 228.908C212.295 228.772 209.841 227.769 207.37 227.127C208.607 225.109 209.756 223.029 211.114 221.097C212.068 219.737 213.789 218.743 214.292 217.285C214.901 215.513 214.589 213.424 214.676 211.47C212.883 211.876 211.054 212.17 209.312 212.729C208.291 213.057 207.404 213.808 206.299 214.464C204.745 206.511 204.725 206.529 197.778 199.127C196.786 198.07 196.187 196.648 195.223 195.557C190.717 190.456 183.907 187.156 182.783 179.4C182.721 178.972 181.802 178.684 181.305 178.301C174.447 173.028 168.287 167.335 165.438 158.634C164.575 155.998 161.771 153.84 159.512 151.856C154.707 147.636 149.774 143.544 144.686 139.672C142.896 138.31 139.775 136.389 138.515 137.066C134.391 139.283 130.845 142.579 126.463 145.929C130.237 146.725 133.374 147.386 136.511 148.048C136.467 148.7 136.424 149.351 136.38 150.003C134.294 150.246 132.204 150.464 130.121 150.736C125.368 151.356 120.553 151.711 115.889 152.743C112.795 153.427 110.938 155.413 111.952 159.296C115.165 171.618 124.683 177.158 136.839 173.595C137.836 173.302 139.02 173.65 140.309 173.708C133.201 190.544 137.63 198.844 154.672 200.192C153.607 206.95 156.125 211.503 163.497 212.215C163.865 212.252 164.499 212.65 164.502 212.884C164.578 219.242 168.635 222.276 173.163 226.071C175.546 228.068 176.89 231.965 180.655 233.387C181.881 233.851 182.932 235.201 183.701 236.383C186.37 240.478 188.704 244.803 191.495 248.809C194.951 253.77 199.838 258.032 202.123 263.439C205.567 271.59 211.18 274.764 219.361 275.625C220.946 275.792 223.354 278.589 223.494 280.326C224.272 290.019 225.727 292.339 234.773 293.936C239.531 294.774 241.973 296.923 243.203 301.739C245.879 312.209 246.808 312.669 257.814 313.579C258.611 313.645 259.387 313.967 258.499 313.738C260.891 318.575 263.186 322.067 264.366 325.904C265.737 330.365 267.621 333.23 272.658 334.008C274.59 334.307 276.156 336.986 277.518 338.87C277.236 339.283 276.957 339.695 276.676 340.108C276.844 340.222 277.013 340.337 277.18 340.451C277.454 339.861 277.727 339.272 278.946 338.81Z" fill="white"/>
<path d="M78.9495 142.885C55.9106 158.221 33.251 173.306 9.44871 189.152C8.92564 185.863 8.36312 183.938 8.35461 182.011C8.29871 169.388 8.46725 156.763 8.3353 144.141C8.28337 139.175 10.3553 135.932 14.4395 133.27C46.4522 112.402 78.4433 91.4996 110.326 70.4335C136.253 53.3025 162.141 36.1049 187.78 18.5469C194.462 13.9707 199.514 13.9519 206.361 18.5583C246.251 45.3976 286.456 71.765 326.562 98.2851C344.069 109.863 361.509 121.547 379.15 132.919C384.312 136.247 386.534 140.331 386.375 146.466C386.08 157.82 386.334 169.187 386.295 180.548C386.287 182.8 385.983 185.051 385.688 188.999C379.249 185.041 373.764 181.882 368.495 178.395C313.169 141.779 257.861 105.134 202.609 68.4049C198.785 65.8628 195.748 65.6711 191.774 68.3141C154.36 93.1892 116.827 117.885 78.9495 142.885ZM265.435 104.236C289.112 119.987 312.859 135.635 336.439 151.529C349.763 160.511 362.82 169.893 375.987 179.111C378.533 180.893 381.738 182.079 382.202 177.934C383.682 164.67 387.57 150.794 375.563 139.772C374.567 138.857 374.352 137.136 373.58 135.913C372.715 134.541 371.888 132.88 370.592 132.087C362.449 127.1 354.157 122.358 345.968 117.443C344.019 116.272 342.265 114.768 340.439 113.391C337.158 110.916 334.025 108.214 330.593 105.974C322.223 100.511 313.6 95.4314 305.304 89.8583C299.569 86.0056 294.464 81.188 288.636 77.5028C275.434 69.1546 261.846 61.42 248.628 53.0984C235.357 44.7453 222.382 35.927 209.195 27.4389C205.876 25.3023 202.354 23.4041 198.74 21.8251C191.699 18.7493 191.639 18.8777 190.013 26.6184C188.06 26.6184 185.625 25.8663 184.15 26.7411C174.841 32.2581 165.531 37.8262 156.64 43.9844C148.155 49.8615 141.123 57.918 130.502 60.4808C128.833 60.8834 127.302 62.4929 126.041 63.8548C118.678 71.8067 110.722 78.7902 99.9151 81.7153C98.1685 82.1881 96.5702 83.4218 95.0579 84.5182C88.6333 89.1758 82.3442 94.0248 75.8587 98.5943C68.1914 103.996 60.2917 109.068 52.6506 114.506C48.2582 117.632 44.4333 123.546 39.9013 124.04C32.3585 124.863 27.8449 130.391 23.5202 133.979C14.5753 141.401 10.1796 152.658 12.3494 165.125C12.8077 167.759 14.7893 170.276 14.7158 172.807C14.6506 175.055 12.7069 177.247 11.5923 179.463C26.9488 171.513 41.7412 163.339 55.7953 154.043C70.5779 144.264 84.5121 133.206 99.1048 123.125C105.462 118.734 112.888 115.888 119.19 111.432C126.144 106.513 135.802 104.448 138.53 94.3279C144.703 94.9497 149.107 91.9772 153.112 87.4233C155.209 85.0385 158.404 83.527 161.284 81.9536C165.826 79.4722 170.722 77.5975 175.096 74.8658C180.247 71.6486 184.75 67.3387 190.03 64.3973C192.783 62.8634 196.598 62.8834 199.939 62.8472C207.245 62.7678 211.523 68.3246 216.94 72.1099C232.581 83.0412 248.725 93.2492 265.435 104.236Z" fill="white"/>
<path d="M51.2019 270.42C51.1996 244.758 51.5013 219.721 51.0207 194.7C50.8636 186.522 53.3842 181.125 60.542 177.351C65.5379 174.717 70.1775 171.392 74.9177 168.285C78.0917 166.205 80.6107 166.635 83.1959 169.472C88.9539 175.79 94.8094 182.027 100.831 188.092C107.324 194.63 110.662 201.836 110.667 211.571C110.694 274.023 111.301 336.472 111.706 398.922C111.724 401.655 111.679 404.391 111.584 407.123C111.453 410.875 109.571 413.065 105.728 413.075C89.5759 413.115 73.4236 413.117 57.2715 413.071C53.0887 413.057 51.2163 410.593 51.265 406.595C51.4856 388.521 51.8455 370.449 51.9739 352.375C52.1066 333.667 52.1169 314.955 52.0065 296.246C51.9568 287.846 51.4832 279.449 51.2019 270.42ZM106.208 392.616C106.366 389.47 106.648 386.323 106.659 383.176C106.724 365.339 106.731 347.502 106.742 329.664C106.751 312.462 106.757 295.259 106.731 278.056C106.721 270.922 106.526 263.789 106.589 256.657C106.718 241.982 107.695 227.272 106.948 212.648C106.256 199.098 93.3007 186.378 81.2706 184.766C81.1313 182.1 81.0003 179.598 80.8695 177.097C78.2687 177.733 75.5812 178.136 73.0874 179.062C69.565 180.37 66.1019 181.907 62.7824 183.667C61.2445 184.482 59.3329 185.838 58.9214 187.32C57.3129 193.115 55.1952 199.048 55.133 204.949C54.7783 238.548 54.9603 272.154 54.9615 305.759C54.9622 331.41 54.9494 357.062 54.9785 382.714C54.9859 389.173 53.7949 396.07 60.631 399.362C59.5444 402.567 58.7369 404.95 57.9294 407.332C60.4708 408.005 63.0127 409.257 65.5532 409.253C75.1874 409.243 84.8436 409.148 94.4485 408.471C104.185 407.784 104.142 407.464 105.108 397.981C105.256 396.526 105.702 395.102 106.208 392.616Z" fill="white"/>
<path d="M342.21 192.389C342.212 232.252 342.212 271.52 342.212 310.789C341.578 311.152 340.941 311.515 340.305 311.878C337.189 308.803 333.944 305.846 330.979 302.627C317.468 287.956 304.219 273.039 290.483 258.583C285.371 253.205 282.77 247.62 282.841 240.088C283.119 211.47 282.925 182.847 283.047 154.227C283.059 151.884 284.135 149.546 284.715 147.206C286.919 148.154 289.321 148.796 291.292 150.098C306.012 159.827 320.568 169.806 335.352 179.435C340.024 182.477 342.839 186.042 342.21 192.389ZM288.277 166.442C287.34 172.179 285.777 177.896 285.596 183.656C285.195 196.469 285.825 209.317 285.404 222.127C284.9 237.481 288.433 250.706 301.858 259.889C303.422 260.96 304.027 263.366 305.255 265.02C307.764 268.4 310.201 271.865 313.02 274.975C317.28 279.676 321.804 284.144 326.305 288.618C327.545 289.85 329.6 291.914 330.411 291.565C332.001 290.88 333.932 288.847 334.064 287.236C335.071 274.921 336.074 262.582 336.312 250.235C336.64 233.22 335.647 216.157 336.568 199.189C336.923 192.645 335.534 188.104 330.923 184.325C325.706 180.051 320.334 175.919 314.731 172.178C308.687 168.144 302.359 164.523 296.017 160.97C294.342 160.031 291.409 159.023 290.39 159.803C289.019 160.854 288.941 163.604 288.277 166.442Z" fill="white"/>
<path d="M335.893 34.2405C339.56 34.3544 342.007 35.9943 342.014 39.8894C342.04 53.934 341.946 67.9787 341.848 82.0228C341.844 82.5717 341.322 83.1168 340.73 84.2739C339.285 83.6389 337.744 83.2129 336.481 82.3693C320.47 71.6691 304.355 61.1075 288.644 49.9773C285.881 48.0198 284.84 43.6179 283.324 39.5292C286.083 37.6905 288.452 36.0419 290.966 35.7794C295.72 35.2829 300.56 35.6973 305.358 35.5281C315.538 35.1686 325.716 34.6776 335.893 34.2405Z" fill="white"/>
<path d="M60.2907 37.975C67.0716 45.0998 73.8318 52.2442 80.6426 59.34C83.6148 62.4366 83.6598 65.263 79.9098 67.6103C72.8214 72.0473 65.657 76.3624 57.78 80.5317C52.487 67.9032 53.1075 55.1266 55.0121 42.3953C55.2662 40.6956 58.4589 39.4376 60.2907 37.975Z" fill="white"/>
<path d="M190.906 121.419C186.345 121.384 181.783 121.379 177.222 121.305C173.219 121.24 170.946 119.171 171.003 115.137C171.081 109.545 171.431 103.958 172.323 98.0654C177.565 98.1213 182.256 98.0107 186.69 99.0301C189.074 99.5779 192.812 102.042 192.832 103.68C192.904 109.584 191.656 115.505 190.906 121.419Z" fill="white"/>
<path d="M207.93 126.488C223.895 126.372 226.221 129.157 223.61 144.566C223.54 144.978 223.612 145.486 223.397 145.793C218.574 152.668 211.56 147.986 205.625 148.837C204.415 149.011 201.862 145.675 201.367 143.61C200.606 140.431 201.274 136.937 200.998 133.605C200.602 128.822 202.579 126.463 207.93 126.488ZM212.813 132.422C211.618 132.776 209.948 132.759 209.329 133.56C208.01 135.265 207.238 137.395 206.242 139.352C208.896 138.731 211.797 138.585 214.144 137.369C217.084 135.846 216.668 133.807 212.813 132.422Z" fill="white"/>
<path d="M170.874 135.473C170.367 128.596 173.479 126.442 179.502 126.371C194.588 126.192 197.896 130.094 194.584 145.13C194.33 146.285 193.567 148.243 192.976 148.267C186.781 148.527 180.399 149.285 174.473 148.011C172.638 147.617 172.01 141.469 170.894 137.935C170.714 137.363 170.869 136.685 170.874 135.473ZM176.813 136.411C176.881 138.087 176.734 141.173 177.051 141.222C180.133 141.695 183.608 142.464 186.289 141.408C187.505 140.928 187.189 136.542 187.569 133.928C184.577 134.083 181.581 134.183 178.6 134.449C178.134 134.491 177.736 135.291 176.813 136.411Z" fill="white"/>
<path d="M201.547 99.052C207.676 98.3623 213.434 98.0408 219.191 97.731C219.39 97.7203 219.627 97.7766 219.792 97.8843C226.697 102.361 223.016 109.254 223.505 115.107C223.837 119.07 221.208 121.182 217.204 121.314C197.853 121.954 199.79 121.468 199.881 105.448C199.892 103.437 200.723 101.43 201.547 99.052ZM218.865 116.453C219.363 113.609 219.879 110.769 220.358 107.922C221.129 103.349 219.028 101.225 214.56 101.247C212.07 101.259 209.54 101.124 207.102 101.516C202.263 102.293 202.238 106.079 202.735 109.721C203.175 112.936 201.815 117.609 207.164 117.901C210.825 118.1 214.534 117.39 218.865 116.453Z" fill="white"/>
<path d="M60.0575 37.61C58.4591 39.4372 55.2665 40.6952 55.0123 42.3951C53.1077 55.1263 52.4873 67.903 57.3707 80.6758C55.6553 83.039 52.9094 84.8066 52.6991 80.2463C51.9762 64.5744 51.8028 48.8767 51.4891 33.1874C51.4747 32.4758 52.1328 31.7504 53.1882 29.5501C55.7722 32.5466 57.7983 34.8958 60.0575 37.61Z" fill="white"/>
<path d="M335.304 34.2376C325.716 34.6797 315.538 35.1709 305.356 35.5303C300.56 35.6996 295.72 35.285 290.966 35.7815C288.452 36.0442 286.081 37.6927 283.311 39.0279C283.534 34.4234 287.176 34.2473 290.862 34.242C305.478 34.2217 320.095 34.2329 335.304 34.2376Z" fill="white"/>
<path d="M191.342 121.225C191.657 115.504 192.905 109.583 192.833 103.679C192.813 102.041 189.075 99.5772 186.691 99.0291C182.258 98.0098 177.566 98.1203 172.481 97.5695C177.405 97.388 182.828 97.4019 188.252 97.4062C192.618 97.4097 195.124 99.608 194.699 103.961C194.136 109.701 197.37 116.156 191.342 121.225Z" fill="white"/>
<path d="M277.89 338.583C276.158 336.988 274.592 334.309 272.66 334.01C267.623 333.232 265.737 330.367 264.366 325.906C263.188 322.069 260.893 318.577 258.501 313.74C259.387 313.971 258.611 313.647 257.816 313.581C246.81 312.671 245.88 312.211 243.203 301.741C241.973 296.925 239.531 294.778 234.775 293.938C225.729 292.341 224.272 290.021 223.494 280.328C223.354 278.591 220.946 275.794 219.361 275.627C211.182 274.767 205.567 271.593 202.123 263.441C199.84 258.034 194.953 253.772 191.496 248.811C188.705 244.805 186.371 240.48 183.702 236.385C182.932 235.203 181.881 233.853 180.655 233.389C176.891 231.967 175.547 228.071 173.164 226.073C168.635 222.278 164.578 219.244 164.502 212.886C164.5 212.652 163.865 212.254 163.498 212.217C156.126 211.505 153.607 206.954 154.672 200.194C137.631 198.846 133.202 190.546 140.309 173.711C139.021 173.652 137.837 173.305 136.84 173.597C124.684 177.16 115.166 171.621 111.952 159.298C110.939 155.415 112.795 153.429 115.889 152.745C120.554 151.713 125.368 151.358 130.122 150.738C132.204 150.466 134.294 150.248 136.381 150.005C136.424 149.354 136.468 148.702 136.512 148.05C133.375 147.388 130.238 146.727 126.464 145.931C130.845 142.581 134.392 139.286 138.516 137.068C139.775 136.391 142.896 138.312 144.687 139.675C149.775 143.546 154.708 147.638 159.513 151.859C161.771 153.842 164.575 156 165.439 158.636C168.288 167.338 174.448 173.03 181.305 178.303C181.803 178.686 182.722 178.974 182.784 179.402C183.907 187.158 190.718 190.458 195.224 195.559C196.189 196.65 196.786 198.072 197.778 199.129C204.725 206.531 204.745 206.513 206.301 214.466C207.406 213.81 208.291 213.059 209.312 212.731C211.056 212.172 212.883 211.877 214.678 211.472C214.591 213.426 214.903 215.515 214.292 217.286C213.789 218.745 212.068 219.739 211.114 221.099C209.758 223.031 208.607 225.113 207.37 227.13C209.843 227.771 212.295 228.774 214.794 228.91C216.199 228.985 217.809 227.808 219.094 226.872C220.809 225.627 222.301 224.069 223.888 222.645C223.998 224.69 223.835 226.805 224.322 228.756C224.615 229.94 225.727 231.176 226.807 231.837C228.196 232.689 230.841 232.545 231.349 233.601C234.244 239.621 238.642 243.515 244.212 247.36C249.91 251.294 253.557 258.199 258.179 263.738C259.384 265.181 261.782 266.204 262.088 267.731C264.738 280.894 280.511 282.254 285.135 293.689C285.718 295.135 288.906 295.847 291.013 296.273C294.724 297.028 295.035 298.788 293.149 301.57C291.341 304.237 289.467 306.857 287.62 309.497C288.118 310.114 288.617 310.731 289.116 311.348C292.218 309.732 295.32 308.116 299.98 305.691C303.162 312.205 307.506 318.695 309.458 325.842C311.095 331.841 314.302 333.236 319.245 333.059C323.791 332.897 325.646 334.763 325.997 339.235C326.259 342.545 326.924 345.99 328.23 349.019C333.255 360.667 332.254 372.893 332.093 385.035C332.046 388.633 332.847 393.903 327.797 393.969C325.44 394 323.025 389.51 320.636 387.07C321.566 386.746 322.495 386.42 323.424 386.094C323.989 384.449 325.516 382.012 324.936 381.302C323.077 379.02 320.289 375.613 318.126 375.798C309.31 376.545 308.992 375.87 304.223 368.431C300.417 362.495 298.09 354.358 288.797 353.161C286.991 352.928 285.032 348.71 284.37 346.027C283.526 342.609 283.416 339.252 278.447 338.723C277.946 338.633 277.89 338.583 277.89 338.583Z" fill="white"/>
<path d="M277.974 338.659C277.727 339.274 277.454 339.863 277.18 340.455C277.011 340.339 276.844 340.224 276.676 340.11C276.957 339.697 277.236 339.285 277.704 338.728C277.89 338.583 277.946 338.633 277.974 338.659Z" fill="white"/>
<path d="M265.053 103.991C248.723 93.2509 232.579 83.0427 216.938 72.1117C211.521 68.3262 207.243 62.7696 199.939 62.8489C196.596 62.8852 192.782 62.8652 190.029 64.3988C184.749 67.3402 180.246 71.6501 175.094 74.8676C170.721 77.599 165.824 79.4738 161.283 81.9551C158.403 83.5287 155.208 85.0401 153.11 87.425C149.105 91.9788 144.701 94.9514 138.529 94.3296C135.8 104.45 126.142 106.515 119.188 111.433C112.887 115.89 105.46 118.736 99.1032 123.127C84.5105 133.208 70.5764 144.266 55.7938 154.045C41.7397 163.341 26.9472 171.515 11.5907 179.465C12.7053 177.249 14.6491 175.056 14.7143 172.809C14.7877 170.278 12.8061 167.761 12.3478 165.127C10.178 152.66 14.5738 141.402 23.5187 133.981C27.8433 130.393 32.357 124.865 39.8995 124.042C44.4318 123.547 48.2567 117.633 52.6491 114.508C60.2901 109.07 68.1898 103.998 75.8571 98.5959C82.3427 94.0266 88.6317 89.1775 95.0564 84.5199C96.5687 83.4236 98.1669 82.1899 99.9136 81.7171C110.72 78.7918 118.676 71.8084 126.039 63.8564C127.3 62.4945 128.831 60.8851 130.5 60.4824C141.121 57.9195 148.154 49.8631 156.639 43.986C165.53 37.8279 174.839 32.2599 184.148 26.7426C185.624 25.868 188.059 26.6202 190.012 26.6202C191.637 18.8793 191.697 18.751 198.738 21.8266C202.352 23.4059 205.876 25.304 209.193 27.4405C222.38 35.9288 235.357 44.7471 248.626 53.1001C261.846 61.4218 275.432 69.1563 288.634 77.5046C294.462 81.1898 299.567 86.0072 305.302 89.86C313.598 95.433 322.221 100.512 330.591 105.976C334.025 108.216 337.156 110.917 340.437 113.393C342.263 114.77 344.017 116.274 345.968 117.445C354.155 122.359 362.448 127.102 370.59 132.088C371.886 132.882 372.713 134.543 373.58 135.915C374.352 137.138 374.565 138.859 375.563 139.773C387.568 150.796 383.68 164.671 382.2 177.936C381.736 182.081 378.531 180.894 375.986 179.112C362.818 169.895 349.761 160.513 336.437 151.531C312.857 135.636 289.11 119.989 265.053 103.991Z" fill="white"/>
<path d="M106.108 393.142C105.701 395.104 105.255 396.528 105.107 397.983C104.141 407.466 104.184 407.786 94.4475 408.473C84.8427 409.15 75.1864 409.245 65.5525 409.255C63.0119 409.259 60.4698 408.007 57.9285 407.334C58.7361 404.952 59.5436 402.569 60.63 399.364C53.7939 396.072 54.9851 389.175 54.9778 382.716C54.9485 357.064 54.9613 331.412 54.9605 305.76C54.9595 272.156 54.7775 238.55 55.1322 204.951C55.1945 199.05 57.3121 193.117 58.9206 187.322C59.3321 185.84 61.2435 184.484 62.7816 183.669C66.1011 181.909 69.5642 180.372 73.0867 179.064C75.5805 178.138 78.2677 177.735 80.8686 177.099C80.9995 179.6 81.1303 182.102 81.2698 184.768C93.3 186.38 106.255 199.1 106.947 212.65C107.694 227.274 106.717 241.984 106.588 256.659C106.525 263.79 106.72 270.924 106.73 278.058C106.756 295.261 106.75 312.464 106.741 329.666C106.731 347.504 106.723 365.341 106.659 383.178C106.647 386.325 106.365 389.472 106.108 393.142Z" fill="white"/>
<path d="M288.291 166.036C288.939 163.607 289.019 160.857 290.39 159.805C291.407 159.025 294.342 160.034 296.017 160.972C302.359 164.525 308.687 168.146 314.729 172.18C320.334 175.921 325.706 180.053 330.923 184.328C335.534 188.106 336.924 192.647 336.569 199.193C335.645 216.161 336.638 233.222 336.31 250.237C336.072 262.584 335.069 274.923 334.062 287.238C333.932 288.849 332.002 290.884 330.411 291.567C329.598 291.916 327.543 289.852 326.305 288.622C321.802 284.146 317.28 279.678 313.018 274.977C310.199 271.869 307.764 268.402 305.255 265.022C304.027 263.369 303.422 260.962 301.858 259.891C288.433 250.708 284.9 237.483 285.404 222.129C285.825 209.318 285.193 196.471 285.596 183.658C285.777 177.898 287.34 172.181 288.291 166.036Z" fill="white"/>
<path d="M213.196 132.463C216.665 133.806 217.08 135.845 214.142 137.368C211.793 138.585 208.894 138.73 206.238 139.351C207.236 137.394 208.008 135.264 209.325 133.559C209.944 132.758 211.614 132.775 213.196 132.463Z" fill="white"/>
<path d="M177.06 136.074C177.736 135.289 178.135 134.489 178.601 134.447C181.582 134.181 184.578 134.081 187.569 133.926C187.19 136.54 187.506 140.927 186.289 141.406C183.609 142.462 180.134 141.693 177.052 141.22C176.735 141.171 176.882 138.085 177.06 136.074Z" fill="white"/>
<path d="M218.544 116.77C214.536 117.391 210.827 118.101 207.166 117.901C201.817 117.609 203.177 112.937 202.737 109.721C202.238 106.08 202.265 102.293 207.104 101.516C209.542 101.124 212.072 101.26 214.561 101.248C219.03 101.225 221.131 103.35 220.36 107.922C219.881 110.769 219.365 113.61 218.544 116.77Z" fill="white"/>
</g>
<path d="M516.843 396.943C511.668 403.927 505.072 409.359 497.054 413.24C489.035 416.862 480.499 418.672 471.444 418.672C456.958 418.672 444.671 415.18 434.582 408.195C424.752 401.211 417.251 391.899 412.077 380.258C407.163 368.618 404.705 355.813 404.705 341.844C404.705 327.358 407.421 314.425 412.853 303.042C418.286 291.402 426.046 282.219 436.134 275.493C446.481 268.767 458.51 265.405 472.22 265.405C483.603 265.405 493.173 267.475 500.934 271.613C508.952 275.751 515.291 280.667 519.947 286.358C522.017 280.407 525.379 276.139 530.035 273.553C534.95 270.707 540.77 269.285 547.496 269.285H549.436C552.282 269.285 553.704 270.837 553.704 273.941V410.912C553.704 413.758 552.282 415.18 549.436 415.18H520.723C518.137 415.18 516.843 413.758 516.843 410.912V396.943ZM479.593 383.75C484.507 383.75 489.811 382.716 495.501 380.646C501.452 378.318 506.496 374.18 510.634 368.229C514.773 362.279 516.843 353.485 516.843 341.844C516.843 330.204 514.773 321.537 510.634 315.847C506.496 309.897 501.58 306.017 495.89 304.206C490.199 302.136 484.895 301.102 479.981 301.102C474.806 301.102 469.246 302.266 463.296 304.594C457.606 306.923 452.689 311.061 448.551 317.011C444.671 322.961 442.731 331.238 442.731 341.844C442.731 352.967 444.801 361.633 448.939 367.841C453.337 373.792 458.382 377.93 464.072 380.258C469.762 382.586 474.936 383.75 479.593 383.75ZM586.643 231.259C586.643 225.051 588.584 220.006 592.464 216.126C596.602 211.988 601.646 209.918 607.597 209.918C613.547 209.918 618.461 211.988 622.341 216.126C626.48 220.006 628.55 225.051 628.55 231.259C628.55 237.209 626.48 242.253 622.341 246.392C618.461 250.53 613.547 252.6 607.597 252.6C601.646 252.6 596.602 250.53 592.464 246.392C588.584 242.253 586.643 237.209 586.643 231.259ZM593.24 415.18C590.654 415.18 589.36 413.758 589.36 410.912V273.941C589.36 270.837 590.654 269.285 593.24 269.285H595.18C605.01 269.285 612.641 271.871 618.073 277.045C623.505 282.219 626.222 290.626 626.222 302.266V410.912C626.222 413.758 624.799 415.18 621.953 415.18H593.24ZM698.57 290.626C702.966 282.347 708.27 276.787 714.479 273.941C720.687 270.837 729.093 269.285 739.7 269.285H743.968C746.554 269.285 747.848 270.837 747.848 273.941V300.326C747.848 303.43 746.554 304.982 743.968 304.982H733.88C719.651 304.982 710.338 308.605 705.942 315.847C701.802 322.831 699.734 333.178 699.734 346.888V410.912C699.734 413.758 698.44 415.18 695.854 415.18H666.752C664.424 415.18 663.26 413.758 663.26 410.912V273.941C663.26 270.837 664.424 269.285 666.752 269.285H668.692C685.505 269.285 695.466 276.399 698.57 290.626ZM772.317 231.259C772.317 225.051 774.257 220.006 778.137 216.126C782.277 211.988 787.322 209.918 793.27 209.918C799.22 209.918 804.135 211.988 808.015 216.126C812.155 220.006 814.223 225.051 814.223 231.259C814.223 237.209 812.155 242.253 808.015 246.392C804.135 250.53 799.22 252.6 793.27 252.6C787.322 252.6 782.277 250.53 778.137 246.392C774.257 242.253 772.317 237.209 772.317 231.259ZM778.913 415.18C776.327 415.18 775.033 413.758 775.033 410.912V273.941C775.033 270.837 776.327 269.285 778.913 269.285H780.853C790.684 269.285 798.314 271.871 803.747 277.045C809.179 282.219 811.895 290.626 811.895 302.266V410.912C811.895 413.758 810.473 415.18 807.627 415.18H778.913ZM883.467 287.522C888.123 281.313 893.814 276.269 900.54 272.389C907.524 268.509 915.803 266.569 925.373 266.569C948.136 266.569 964.305 275.105 973.876 292.178C979.05 285.194 985.516 279.243 993.277 274.329C1001.04 269.155 1010.35 266.569 1021.21 266.569C1039.58 266.569 1053.94 272.001 1064.28 282.865C1074.89 293.73 1080.19 309.897 1080.19 331.368V410.912C1080.19 413.758 1078.64 415.18 1075.54 415.18H1046.82C1044.24 415.18 1042.94 413.758 1042.94 410.912V335.636C1042.94 322.701 1040.1 313.519 1034.41 308.087C1028.97 302.654 1021.99 299.938 1013.45 299.938C1004.92 299.938 997.675 302.784 991.725 308.475C986.034 314.165 983.188 323.349 983.188 336.024V410.912C983.188 413.758 981.894 415.18 979.308 415.18H950.207C947.36 415.18 945.938 413.758 945.938 410.912V335.636C945.938 322.701 943.222 313.519 937.79 308.087C932.358 302.654 925.243 299.938 916.449 299.938C907.654 299.938 900.41 302.784 894.72 308.475C889.029 314.165 886.183 323.349 886.183 336.024V410.912C886.183 413.758 884.761 415.18 881.915 415.18H852.426C850.097 415.18 848.933 413.758 848.933 410.912V273.941C848.933 270.837 850.097 269.285 852.426 269.285H854.366C861.868 269.285 868.076 270.837 872.991 273.941C878.165 276.787 881.657 281.313 883.467 287.522Z" fill="white"/>
</svg>
